<?xml version="1.0" encoding="UTF-8" standalone="no"?>
<!-- Created with Inkscape (http://www.inkscape.org/) -->

<svg
   xmlns:dc="http://purl.org/dc/elements/1.1/"
   xmlns:cc="http://creativecommons.org/ns#"
   xmlns:rdf="http://www.w3.org/1999/02/22-rdf-syntax-ns#"
   xmlns:svg="http://www.w3.org/2000/svg"
   xmlns="http://www.w3.org/2000/svg"
   xmlns:sodipodi="http://sodipodi.sourceforge.net/DTD/sodipodi-0.dtd"
   xmlns:inkscape="http://www.inkscape.org/namespaces/inkscape"
   width="241.68922mm"
   height="111.7059mm"
   viewBox="0 0 241.68922 111.7059"
   version="1.1"
   id="svg119"
   inkscape:version="0.92.1 r15371"
   sodipodi:docname="drawing_logo.svg">
  <defs
     id="defs113" />
  <sodipodi:namedview
     id="base"
     pagecolor="#ffffff"
     bordercolor="#666666"
     borderopacity="1.0"
     inkscape:pageopacity="0.0"
     inkscape:pageshadow="2"
     inkscape:zoom="0.35"
     inkscape:cx="332.44983"
     inkscape:cy="-108.90222"
     inkscape:document-units="mm"
     inkscape:current-layer="layer1"
     showgrid="false"
     fit-margin-top="0"
     fit-margin-left="0"
     fit-margin-right="0"
     fit-margin-bottom="0"
     inkscape:window-width="1920"
     inkscape:window-height="1018"
     inkscape:window-x="-8"
     inkscape:window-y="-8"
     inkscape:window-maximized="1" />
  <metadata
     id="metadata116">
    <rdf:RDF>
      <cc:Work
         rdf:about="">
        <dc:format>image/svg+xml</dc:format>
        <dc:type
           rdf:resource="http://purl.org/dc/dcmitype/StillImage" />
        <dc:title></dc:title>
      </cc:Work>
    </rdf:RDF>
  </metadata>
  <g
     inkscape:label="Layer 1"
     inkscape:groupmode="layer"
     id="layer1"
     transform="translate(75.48747,-8.3137167)">
    <path
       style="fill:#837b47;stroke-width:0.26458332"
       id="path3714"
       d="m -39.781648,8.3137167 c -1.200978,2.5361883 -2.354283,5.0934683 -3.583619,7.6170823 -0.650434,1.559936 -1.368013,3.085253 -2.104248,4.605089 -0.911637,1.998064 -1.900417,3.959587 -2.85614,5.936625 -1.261795,2.410358 -2.323946,4.91333 -3.324051,7.440538 -0.772312,2.098297 -1.439117,4.234241 -2.162644,6.350813 -0.781,2.2855 -1.646459,4.53994 -2.48526,6.804424 -0.599318,1.53606 -1.036073,3.130783 -1.47759,4.718018 -0.834936,2.86571 -1.448773,5.793177 -2.098711,8.705996 -0.529914,2.351614 -0.651791,4.761767 -0.719343,7.162848 0.04153,1.761164 -0.04319,3.495418 -0.314773,5.234667 -0.264884,1.444276 -0.267891,2.917058 -0.567945,4.354013 -0.36715,1.282096 -0.444783,2.612302 -0.619216,3.926255 -0.165466,1.219205 -0.683806,2.327627 -1.066175,3.481885 -0.435838,1.140875 -0.838503,2.260153 -1.03322,3.47023 -0.103453,1.374679 -0.187617,2.729092 -0.471501,4.080457 -0.111248,0.828574 -0.380102,1.613924 -0.642803,2.402551 0,0 -10.178583,4.810139 -10.178583,4.810139 v 0 c 0.220147,-0.780299 0.59823,-1.5029 0.692053,-2.310234 0.274408,-1.335611 0.560521,-2.627738 0.512701,-4.006842 0.128654,-1.249817 0.308201,-2.507977 0.956035,-3.61075 0.276395,-1.185455 0.867397,-2.215943 1.105806,-3.408082 0.363206,-1.284467 0.188664,-2.674482 0.603098,-3.96073 0.374489,-1.412886 0.431582,-2.839223 0.621138,-4.288494 0.279433,-1.705332 0.51044,-3.383859 0.413735,-5.121727 0.07444,-2.465724 0.167504,-4.945936 0.65452,-7.371221 0.66308,-2.90517 1.352311,-5.803757 2.017013,-8.707204 0.398199,-1.638099 0.902715,-3.255553 1.446469,-4.849294 0.917076,-2.230798 1.709209,-4.514617 2.561408,-6.771355 0.672418,-2.144514 1.399599,-4.274695 2.097681,-6.408274 1.062117,-2.520654 2.029277,-5.087195 3.315951,-7.507553 0.924528,-1.961736 1.898297,-3.899685 2.79707,-5.872151 0.636888,-1.589249 1.599964,-3.029751 2.141513,-4.667594 1.221066,-2.525929 2.539487,-5.004207 3.562361,-7.622034 0,0 10.20727,-4.6180913 10.20727,-4.6180913 z"
       inkscape:connector-curvature="0" />
    <path
       style="fill:#837b47;stroke-width:0.26458332"
       id="path3716"
       d="m -52.647934,57.963989 c 3.014097,0.36082 6.052096,0.476535 9.084406,0.568796 2.119898,0.05851 4.240663,0.05908 6.361166,0.05523 1.585645,-0.0048 3.171293,-0.0083 4.756944,-0.01013 1.823995,0.0045 3.647998,0.0079 5.471998,0.0064 1.698387,0.05685 3.349795,0.02262 5.016172,-0.292807 0.783283,-0.0727 1.509572,-0.378243 2.256798,-0.60189 0,0 -8.900329,6.853076 -8.900329,6.853076 v 0 c -0.770194,0.210056 -1.543378,0.400357 -2.338433,0.493723 -1.694177,0.220454 -3.39943,0.125863 -5.104262,0.137785 -1.830856,-0.0013 -3.66172,0.0024 -5.492559,0.0097 -1.581362,0.0011 -3.162737,0.0034 -4.744091,-0.0034 -2.111539,-0.01273 -4.223663,-0.03329 -6.33351,-0.124915 -3.066851,-0.140538 -6.133965,-0.309909 -9.191386,-0.592158 0,0 9.157086,-6.499424 9.157086,-6.499424 z"
       inkscape:connector-curvature="0" />
    <path
       style="fill:#837b47;stroke-width:0.26458332"
       id="path3718"
       d="m -4.783919,17.921172 c -0.285419,0.833207 -0.302493,1.729867 -0.545269,2.571933 -1.340136,4.648226 -2.850497,9.246016 -4.21019,13.888559 -1.490438,5.08896 -2.930594,10.192521 -4.403559,15.286568 -2.130237,7.004021 -3.911793,14.102181 -5.758317,21.183124 -0.842145,2.724301 -1.440781,5.500687 -2.006825,8.291131 -0.484206,2.263122 -0.970214,4.526479 -1.511356,6.776728 -0.32014,1.607524 -0.920543,3.129656 -1.391531,4.692288 -0.216352,1.27386 -0.557696,2.515904 -0.851482,3.772723 0,0 -10.127969,4.905563 -10.127969,4.905563 v 0 c 0.230576,-1.298197 0.717568,-2.517458 0.828847,-3.836792 0.381431,-1.605576 1.128061,-3.080187 1.439579,-4.707565 0.630282,-2.223651 1.019527,-4.511175 1.571673,-6.75486 0.652571,-2.793103 1.040492,-5.648592 2.014995,-8.364725 2.120082,-7.18974 4.189568,-14.394257 6.465136,-21.537716 3.113397,-10.329825 6.343401,-20.682968 8.373708,-31.289865 0,0 10.11256,-4.877094 10.11256,-4.877094 z"
       inkscape:connector-curvature="0" />
    <path
       style="fill:#837b47;stroke-width:0.26458332"
       id="path3720"
       d="m 11.951863,74.983563 c 3.674206,-0.312425 7.268708,-1.112409 10.874566,-1.839513 2.462641,-0.509466 4.777881,-1.503286 7.216061,-2.09391 0.24604,-0.103436 0.49035,-0.211085 0.73812,-0.310303 1.65129,-0.661255 -0.25711,0.166645 1.31031,-0.597541 0.21471,-0.104674 0.86315,-0.406976 0.65655,-0.287112 -15.01916,8.713361 -11.717496,6.747999 -8.527822,4.844447 1.139242,-0.586362 2.023472,-1.51148 2.950642,-2.37076 0.88767,-0.842219 1.68091,-1.711973 2.19997,-2.82848 0.41466,-1.015418 0.35997,-1.985706 -0.26321,-2.886805 -0.53646,-0.926182 -1.55374,-1.310712 -2.51854,-1.657184 -1.54449,-0.753152 -3.259981,-1.065636 -4.924798,-1.451663 -1.776923,-0.394583 -3.593261,-0.517686 -5.407223,-0.578448 -1.543807,-0.0348 -3.088172,-0.02445 -4.632238,-0.02035 -1.509498,0.0046 -3.018999,0.0064 -4.528503,0.0074 -1.826114,-0.171235 -2.644446,0.111123 -4.295743,0.701636 -1.93873395,0.743262 -3.66382295,1.902044 -5.537782,2.780188 -10.169763,5.910808 30.296677,-17.455001 -3.046627,1.747925 -2.930752,1.687867 5.86202905,-3.374858 8.799812,-5.050462 0.283247,-0.161552 -0.557271,0.338765 -0.835909,0.508146 -24.576868,14.136843 -4.824582,2.767317 -1.82764595,1.070671 0.283506,-0.160499 -0.549236,0.350551 -0.823773,0.525957 -0.80863805,0.516649 -1.59060305,1.049724 -2.36184005,1.620774 -1.342935,1.031544 -2.537259,2.24545 -3.588607,3.56984 -1.073039,1.325348 -1.534324,2.902694 -1.81497,4.551857 -0.210445,1.543209 -0.20991,3.103883 -0.214427,4.658199 -0.04982,1.661388 0.376566,3.290684 0.897076,4.854729 0.552349,1.876049 1.689401,3.431362 2.832962,4.97845 1.426803,1.803913 3.319084,3.108941 5.10203705,4.521499 1.26041395,0.946613 2.73402395,1.542079 4.15398795,2.209869 1.580792,0.757645 3.103642,1.479174 4.8134,1.908841 2.025306,0.695667 4.13907,1.040456 6.26449,1.233422 1.614704,0.118327 3.234814,0.110439 4.852757,0.107979 1.549082,0.0857 3.043901,-0.0437 4.564994,-0.290156 1.63192,-0.349675 3.13368,-1.04222 4.71277,-1.543563 0.2335,-0.05424 0.47434,-0.08325 0.70049,-0.162732 0.19859,-0.06979 0.37667,-0.18801 0.56501,-0.282017 0.19149,-0.0772 0.7532,-0.334906 0.57446,-0.231581 -2.88512,1.667772 -11.596207,6.573688 -8.699731,4.925728 3.390061,-1.928785 6.782191,-3.853952 10.173281,-5.78093 1.09984,-0.329653 2.1069,-0.894557 3.14231,-1.386274 3.61932,-1.83519 9.23236,-5.179251 -6.86878,4.039801 0,0 10.4713,-4.06073 10.4713,-4.06073 v 0 c -4.09792,2.374249 -8.13489,4.95494 -12.40372,7.049873 -1.0215,0.51693 -2.11262,0.8879 -3.145821,1.3802 3.048181,-1.76144 6.095761,-3.523933 9.144551,-5.28433 0.1629,-0.09406 -0.32341,0.192222 -0.48686,0.285308 -3.39089,1.931112 -6.77032,3.882582 -10.176111,5.787272 -0.574159,0.3211 -1.265891,0.36109 -1.861508,0.62671 -1.568807,0.58482 -3.169615,1.08311 -4.823484,1.36902 -1.551741,0.21359 -3.11155,0.16416 -4.675261,0.16062 -1.636258,-0.0109 -3.27569,-0.0322 -4.903264,-0.2195 C 4.315343,105.51802 2.192805,105.0675 0.12166205,104.40512 -1.61126,103.89401 -3.201385,103.12008 -4.836153,102.36367 c -1.487487,-0.69084 -2.9879,-1.40171 -4.258376,-2.45584 -1.848845,-1.476764 -3.788362,-2.883239 -5.261602,-4.76191 -1.226225,-1.626333 -2.392312,-3.316041 -3.013737,-5.279647 -0.57518,-1.658392 -1.102127,-3.399282 -1.09412,-5.168167 -0.0011,-1.603671 -0.0085,-3.211248 0.150823,-4.808894 0.221292,-1.748777 0.542581,-3.557482 1.585857,-5.023088 0.929211,-1.484945 2.183399,-2.728865 3.484901,-3.888209 5.618858,-4.573227 24.959693,-14.476523 4.961715,-3.350802 0.280617,-0.160401 0.562338,-0.318881 0.841846,-0.481203 34.418906,-19.988242 -22.431703,12.901911 11.835691,-6.867221 0.723077,-0.41715 0.848712,-0.472786 1.610199,-0.87217 1.852072,-0.965403 3.661545,-2.043279 5.662506,-2.683502 1.484596,-0.462931 2.969911,-0.470254 4.517157,-0.415904 1.509287,-0.0016 3.018571,-0.0049 4.527857,-0.0078 1.552387,-7.93e-4 3.105714,-0.0049 4.656726,0.07031 1.85354,0.11294 3.7024,0.317145 5.50915,0.763834 1.71967,0.423373 3.46453,0.784878 5.06479,1.573559 1.13403,0.529262 2.25205,1.066681 2.8854,2.213136 0.74942,1.165434 1.1182,2.459731 0.73774,3.834821 -0.37182,1.249137 -0.95202,2.418289 -2.01176,3.22594 -0.8105,1.007433 -1.82896,1.874824 -2.83494,2.677631 -4.42553,2.565342 -8.62212,5.783276 -13.57824,7.213232 -2.385719,0.6779 -4.723574,1.530226 -7.171179,1.979732 -3.632862,0.739899 -7.279482,1.372682 -10.960913,1.823598 0,0 8.940525,-6.691532 8.940525,-6.691532 z"
       inkscape:connector-curvature="0" />
    <path
       style="fill:#837b47;stroke-width:0.26458332"
       id="path3722"
       d="m 66.20858,33.849113 c -0.85597,2.555737 -1.51289,5.178189 -2.12963,7.801099 -0.39575,1.862484 -0.83003,3.717186 -1.26433,5.571087 -0.90573,3.345961 -1.68495,6.728251 -2.33316,10.1336 -0.35934,2.704648 -0.90571,5.379244 -1.31126,8.076105 -0.25591,2.127771 -0.30703,4.272113 -0.33169,6.412759 -0.0169,1.76847 -0.01,3.536971 -0.003,5.30547 0.007,1.574938 0.009,3.149886 0.0106,4.724837 -0.0118,1.718876 -0.006,3.437813 -0.003,5.156713 0.0605,1.493861 0.007,2.958565 -0.28199,4.424828 -0.0309,0.159898 -0.0619,0.319794 -0.0928,0.479692 0,0 -10.16564,4.87724 -10.16564,4.87724 v 0 c 0.0444,-0.149339 0.0888,-0.298678 0.13323,-0.448017 0.28848,-1.413057 0.54834,-2.777815 0.40279,-4.236246 0.003,-1.717474 0.009,-3.434993 -0.004,-5.15244 2.1e-4,-1.576216 5.3e-4,-3.152429 8e-4,-4.728644 -1e-4,-1.77459 -0.008,-3.549235 0.002,-5.323777 0.0318,-2.184614 0.10024,-4.370136 0.31285,-6.545802 0.29046,-2.75168 1.06113,-5.429253 1.37493,-8.181565 0.63744,-3.39684 1.40994,-6.767163 2.15678,-10.138733 0.54564,-1.821235 0.85382,-3.723867 1.32986,-5.564558 0.61054,-2.640724 1.3243,-5.258181 2.03791,-7.872436 0,0 10.15935,-4.771212 10.15935,-4.771212 z"
       inkscape:connector-curvature="0" />
    <path
       style="fill:#837b47;stroke-width:0.26458332"
       id="path3724"
       d="m 84.54597,32.929641 c -0.0562,2.500462 -0.0304,5.001936 -0.0163,7.502754 0.12553,1.750325 0.46119,3.473606 0.61093,5.222108 0.12557,1.712624 0.14899,3.430291 0.16366,5.146739 0.013,1.612098 0.001,3.224188 -0.004,4.836273 0.099,1.997493 -0.1119,3.970817 -0.33988,5.950919 -0.11185,2.582428 -0.6153,5.1079 -1.06252,7.645437 -0.50007,2.39314 -1.07552,4.767548 -1.40443,7.192129 -0.39439,1.818441 -0.64453,3.654695 -0.91006,5.494411 -0.42079,2.026656 -0.62429,4.079693 -0.7386,6.143276 -0.08,1.711259 -0.083,3.424719 -0.0841,5.137446 0.039,1.671402 -0.0975,3.354777 0.0666,5.020467 0.16143,0.891849 0.32875,1.78122 0.45902,2.67828 0,0 -9.95114,5.242 -9.95114,5.242 v 0 c -0.11579,-0.9046 -0.26964,-1.8017 -0.45878,-2.69412 -0.24811,-1.7013 -0.0536,-3.43292 -0.12565,-5.147727 0.003,-1.73508 0.009,-3.470765 0.0869,-5.20445 0.10752,-2.094867 0.22749,-4.198554 0.68377,-6.252199 0.33411,-1.815013 0.36078,-3.679116 0.91729,-5.456489 0.30467,-2.458405 0.87917,-4.862094 1.4579,-7.268504 0.41568,-2.512287 0.93625,-5.011245 1.05622,-7.560458 0.17938,-1.942386 0.46881,-3.86937 0.34926,-5.827271 -0.002,-1.608328 -0.006,-3.216634 -0.002,-4.824973 -0.004,-1.691957 -0.01,-3.385315 -0.11663,-5.074581 -0.1397,-1.781763 -0.43874,-3.540763 -0.62698,-5.317104 0.0139,-2.49527 0.0402,-4.991211 -0.0163,-7.486113 0,0 10.00588,-5.09825 10.00588,-5.09825 z"
       inkscape:connector-curvature="0" />
    <path
       style="fill:#837b47;stroke-width:0.26458332"
       id="path3726"
       d="m 119.54378,82.566505 c -2.74526,-0.125857 -5.42018,0.630738 -8.05359,1.305955 -1.18058,0.289962 -2.21642,0.881673 -3.26395,1.467395 -0.30823,0.172344 -1.23719,0.681453 -0.93146,0.504716 2.90172,-1.677463 11.61628,-6.693466 8.71975,-5.007067 -3.46218,2.015717 -6.94446,3.996695 -10.41669,5.995042 16.38177,-10.027528 8.68493,-5.352028 5.34823,-2.259628 -1.4494,1.2793 -2.6349,2.789771 -3.63136,4.437528 -1.04645,1.726215 -1.71593,3.607726 -2.10179,5.579562 -0.43535,1.741432 -0.0271,3.223599 0.62437,4.8333 0.63142,1.899992 1.63744,3.597712 2.88482,5.152282 1.16297,1.29876 2.68337,2.27777 4.2155,3.09837 1.30942,0.88828 2.78588,1.27155 4.33289,1.46006 1.48903,0.1305 2.9858,0.11341 4.47905,0.10973 1.38754,0.14708 2.67617,-0.34108 4.02742,-0.55401 -0.7705,0.70809 2.95726,-1.639 1.98879,-1.08093 -9.24771,5.32877 -12.01603,7.21904 -8.6123,4.91625 1.20744,-0.9143 2.17377,-2.03854 3.10453,-3.22177 0.94811,-1.12094 1.65667,-2.41352 2.54431,-3.57928 0.66521,-0.93569 1.23062,-1.90812 1.62718,-2.98516 0.59088,-1.09196 0.75983,-2.30015 0.97294,-3.502219 0.43363,-1.410335 0.60744,-2.868274 0.71736,-4.333533 0.0926,-1.540524 0.0933,-3.084516 0.0964,-4.627216 -0.0309,-1.494531 0.0644,-2.994475 -0.0644,-4.484831 -0.0978,-1.365549 -0.76484,-2.450803 -1.55202,-3.515759 -0.60894,-0.965221 -1.16021,-1.976345 -2.24885,-2.429465 -0.97318,-0.533654 -1.97013,-1.078648 -3.02389,-1.443702 -1.23905,-0.153498 -2.40805,-0.52166 -3.61908,-0.806897 -1.33287,-0.262128 -2.69588,-0.286827 -4.04941,-0.313587 -0.72749,-0.04508 -1.39922,-0.03246 -2.10397,0.142629 0,0 9.01365,-6.730865 9.01365,-6.730865 v 0 c 0.73502,-0.0213 1.46905,-0.02344 2.20404,0.0087 1.41141,0.05706 2.83054,0.140364 4.20247,0.504404 1.23362,0.331573 2.50018,0.506931 3.70718,0.926666 1.05553,0.470556 2.10553,0.966785 3.09968,1.557084 1.09925,0.714647 1.8332,1.732801 2.49744,2.852668 0.89143,1.216137 1.64968,2.492307 1.82297,4.026871 0.22835,1.523418 0.087,3.069064 0.12675,4.606071 -7.9e-4,1.564605 0.001,3.129973 -0.0681,4.693401 -0.0844,1.508956 -0.17249,3.045709 -0.60948,4.500251 -0.39219,1.198118 -0.25923,2.539314 -0.88111,3.681663 -0.29415,0.545786 -0.37953,1.114111 -0.64084,1.673503 -0.47776,1.022763 -0.0659,0.01807 -0.62501,0.941943 -0.11088,0.18324 -0.18252,0.38752 -0.27378,0.58128 -0.83465,1.23065 -1.77422,2.38848 -2.54751,3.66679 -0.99457,1.13222 -1.73093,2.49848 -3.00559,3.36446 -3.02423,3.42243 -0.27079,0.40987 -10.57012,6.4135 -0.68127,0.39712 -1.43638,0.6437 -2.21453,0.77036 -1.37136,0.27441 -2.7275,0.49577 -4.13557,0.38457 -1.52946,-0.009 -3.06701,-0.0128 -4.58147,-0.25407 -1.62666,-0.32042 -3.15176,-0.88661 -4.54935,-1.79653 -1.61353,-0.96073 -3.22063,-2.02437 -4.42589,-3.484 -1.26991,-1.65754 -2.39677,-3.41648 -3.04687,-5.41752 -0.72695,-1.76981 -1.35518,-3.44287 -0.92379,-5.386386 0.32517,-2.076911 0.91767,-4.084432 1.95091,-5.929697 0.9269,-1.76285 2.05652,-3.382832 3.49868,-4.770437 0.93971,-0.836549 1.79735,-1.795309 2.78772,-2.571417 3.33508,-2.613546 11.17912,1.204259 10.95469,-6.44788 -2.92086,1.690873 -11.69942,6.735572 -8.76258,5.072621 4.68385,-2.652165 9.44284,-6.251691 14.79334,-7.765592 2.71533,-0.658244 5.46444,-1.225471 8.27649,-1.13089 0,0 -9.08515,6.600745 -9.08515,6.600745 z"
       inkscape:connector-curvature="0" />
    <path
       style="fill:#837b47;stroke-width:0.26458332"
       id="path3728"
       d="m 148.50029,96.124875 c -0.4585,-2.606916 -1.46457,-5.058162 -2.20646,-7.586425 -0.59603,-1.430089 -1.05539,-2.884874 -1.2882,-4.416488 -0.0278,-1.325507 -0.35055,-2.599862 -0.5939,-3.894193 -0.27117,-2.155934 -0.78869,-4.266428 -1.14602,-6.410368 -0.37152,-2.255276 -0.56609,-4.532447 -0.66059,-6.814455 -0.0516,-1.577173 -0.045,-3.155431 -0.042,-4.73321 0.0232,-1.634686 -0.38206,-3.224686 -0.44103,-4.856613 0.1191,-1.819555 0.19896,-3.64949 0.41686,-5.460687 0.3916,-1.790676 0.51139,-3.620651 0.76111,-5.43146 0.24232,-1.500081 0.53905,-2.977448 0.9734,-4.432995 0.38161,-1.381594 0.76797,-2.75816 1.11824,-4.148156 0.47886,-1.445787 1.11619,-2.829224 1.74189,-4.21488 0.41185,-1.179585 0.77926,-2.363549 1.67081,-3.26862 1.1148,4.388578 7.38611,-6.926222 11.51851,-5.726802 0.68663,0.199295 1.20258,0.691467 1.76615,1.10232 0.99262,0.849273 1.34269,2.140969 2.03688,3.20352 0.70725,1.022864 0.944,2.250867 1.35417,3.403528 0.46714,1.314257 0.58573,2.704531 0.66512,4.086053 0.0627,1.504905 0.0559,3.01158 0.0549,4.517461 -0.0262,1.50557 0.049,3.014308 -0.0579,4.516978 -0.25476,1.27241 -0.39891,2.570758 -0.75355,3.820453 -0.39165,1.304095 -0.88406,2.563376 -1.16553,3.898353 -0.34882,1.26742 -0.6633,2.535708 -0.93629,3.822081 -0.42381,1.208206 -0.65187,2.451925 -0.77359,3.722343 -0.0385,1.406096 -0.11198,2.785785 -0.39331,4.165362 -0.29612,1.3375 -0.3776,2.705444 -0.43063,4.070032 -0.15303,1.338393 -0.43245,2.664236 -0.68624,3.988205 -0.4032,1.382742 -0.54279,2.820572 -0.91641,4.208455 -0.32676,1.231249 -0.5587,2.474838 -0.92309,3.696512 -0.28485,1.356363 -0.64126,2.697694 -0.92133,4.055391 -0.38547,1.481013 -0.75683,2.954469 -0.9524,4.474143 -0.0415,1.144932 -0.34484,2.248612 -0.57637,3.36314 0,0 -10.11785,4.921364 -10.11785,4.921364 v 0 c 0.18628,-1.107509 0.56829,-2.173827 0.62568,-3.29534 0.14943,-1.544744 0.40411,-3.074501 0.91438,-4.546304 0.23403,-1.395233 0.66218,-2.735651 0.86399,-4.134681 0.31832,-1.241774 0.73915,-2.432939 0.9223,-3.709662 0.42294,-1.370557 0.59994,-2.767139 0.94694,-4.160594 0.3528,-1.239536 0.3862,-2.554631 0.78882,-3.789066 0.0345,-1.416071 0.0792,-2.838365 0.33495,-4.235305 0.27453,-1.348896 0.55007,-2.652238 0.46166,-4.045206 0.0822,-1.326087 0.19561,-2.664074 0.66495,-3.91958 0.44975,-1.200486 0.40225,-2.55923 0.99775,-3.728791 0.21504,-1.3881 0.62295,-2.694022 1.0938,-4.009263 0.39465,-1.203659 0.57442,-2.420695 0.8401,-3.661754 0.30967,-1.431182 0.0449,-2.931277 0.13594,-4.386623 0.002,-1.48804 0.0103,-2.97652 -0.0331,-4.464108 -0.054,-1.275606 -0.11766,-2.56698 -0.52555,-3.788339 -0.38222,-1.074123 -0.59369,-2.218002 -1.2306,-3.179969 -0.59552,-0.94825 -0.91768,-2.102388 -1.80162,-2.828016 -0.26238,-0.173795 -0.57386,-0.42241 -0.89737,-0.495846 -0.5341,-0.121241 -1.04624,0.09954 -1.52996,0.290322 3.04452,-1.769084 6.08904,-3.538169 9.13356,-5.307253 -1.2941,0.439992 -1.62045,1.386455 -1.95592,2.641906 -0.52064,1.402391 -1.26396,2.708303 -1.80477,4.105965 -0.43481,1.357688 -0.67467,2.783344 -1.1062,4.142162 -0.39044,1.442564 -0.87602,2.837728 -1.05147,4.335036 -0.36656,1.788121 -0.34626,3.64099 -0.75166,5.428266 -0.39522,1.727568 -0.26949,3.54008 -0.51314,5.294114 -0.0626,1.645177 0.46059,3.213738 0.45836,4.85308 -0.005,1.569077 -0.0161,3.138303 0.007,4.707287 0.0517,2.248072 0.18199,4.495782 0.52403,6.72088 0.34641,2.13664 0.9536,4.205351 1.23666,6.34256 0.22647,1.314092 0.62737,2.594001 0.61018,3.940241 0.17835,1.494507 0.60191,2.909038 1.17142,4.302961 0.68906,2.570787 1.64823,5.060116 2.26406,7.652689 0,0 -9.89045,5.287889 -9.89045,5.287889 z"
       inkscape:connector-curvature="0" />
    <path
       style="fill:#837b47;stroke-width:0.26458332"
       id="path3730"
       d="m 157.87335,108.52488 c -0.0514,2.13934 -0.0332,4.27962 -0.0224,6.41933 0,0 -9.96105,5.07541 -9.96105,5.07541 v 0 c 0.0107,-2.13209 0.0293,-4.26477 -0.0224,-6.39649 0,0 10.00588,-5.09825 10.00588,-5.09825 z"
       inkscape:connector-curvature="0" />
  </g>
</svg>
